<svg id="Capa_1" data-name="Capa 1" xmlns="http://www.w3.org/2000/svg" viewBox="0 0 1447 512"><defs><style>.cls-1{fill:#455a64;}.cls-2{font-size:125px;fill:#a0a0a0;font-family:Arial-Black, Arial Black;}.cls-3{letter-spacing:0.02em;}.cls-4{letter-spacing:-0.03em;}</style></defs><title>Монтажная область 1</title><path class="cls-1" d="M702.67,512H660a10.67,10.67,0,1,1,0-21.33h42.67A10.67,10.67,0,0,0,713.33,480V32a10.67,10.67,0,0,0-10.66-10.67H660A10.67,10.67,0,1,1,660,0h42.67a32,32,0,0,1,32,32V480A32,32,0,0,1,702.67,512Z"/><path class="cls-1" d="M788,512H745.33a32,32,0,0,1-32-32V32a32,32,0,0,1,32-32H788a10.67,10.67,0,1,1,0,21.33H745.33A10.67,10.67,0,0,0,734.67,32V480a10.67,10.67,0,0,0,10.66,10.67H788A10.67,10.67,0,1,1,788,512Z"/><path d="M702.67,512H660a10.67,10.67,0,1,1,0-21.33h42.67A10.67,10.67,0,0,0,713.33,480V32a10.67,10.67,0,0,0-10.66-10.67H660A10.67,10.67,0,1,1,660,0h42.67a32,32,0,0,1,32,32V480A32,32,0,0,1,702.67,512Z"/><path d="M788,512H745.33a32,32,0,0,1-32-32V32a32,32,0,0,1,32-32H788a10.67,10.67,0,1,1,0,21.33H745.33A10.67,10.67,0,0,0,734.67,32V480a10.67,10.67,0,0,0,10.66,10.67H788A10.67,10.67,0,1,1,788,512Z"/><text class="cls-2" transform="translate(157.5 284.93)">Ca<tspan class="cls-3" x="180.6" y="0">r</tspan><tspan x="238.1" y="0">et</tspan></text><text class="cls-2" transform="translate(826.98 284.93)"><tspan class="cls-4">P</tspan><tspan x="87.04" y="0">osition</tspan></text></svg>